<svg width="1001" height="196" viewBox="0 0 1001 196" fill="none" xmlns="http://www.w3.org/2000/svg">
<g clip-path="url(#clip0)">
<path d="M42.8103 125.423C42.8103 84.7893 66.3779 54.9912 108.095 54.9912C126.787 54.9912 143.311 63.9306 151.438 77.2043V0H177.715V193.688H151.438V173.371C143.311 186.916 126.516 195.855 108.366 195.855C66.378 195.855 42.8103 166.057 42.8103 125.423ZM153.334 125.423C153.334 96.9795 136.81 78.017 111.346 78.017C86.1531 78.017 69.6287 96.9795 69.6287 125.423C69.6287 153.867 86.1531 172.829 111.346 172.829C136.81 172.829 153.334 153.867 153.334 125.423Z" fill="#222222"/>
<path d="M231.891 0V33.0489H202.635V0H231.891ZM204.26 57.1583H230.537V193.688H204.26V57.1583Z" fill="#222222"/>
<path d="M248.417 149.262H273.068C274.693 164.973 286.071 173.913 303.679 173.913C319.391 173.913 329.414 165.515 329.414 155.492C329.414 119.193 251.938 152.512 251.938 94.2705C251.938 70.7029 271.984 54.9911 300.428 54.9911C331.31 54.9911 352.439 72.0574 353.794 97.7921H329.143C327.246 82.0804 312.076 75.8499 300.428 75.8499C286.342 75.8499 276.86 82.8931 276.86 93.4579C276.86 127.319 354.877 92.6452 354.877 154.95C354.877 179.873 334.561 195.855 303.679 195.855C271.714 195.855 250.313 177.976 248.417 149.262Z" fill="#222222"/>
<path d="M365.441 125.423C365.441 87.7691 390.092 54.9911 433.164 54.9911C465.129 54.9911 492.76 73.9536 496.553 104.835H470.276C467.838 89.3945 452.126 78.017 433.706 78.017C406.345 78.017 392.801 99.1466 392.801 125.423C392.801 151.7 406.616 172.829 433.706 172.829C452.397 172.829 466.213 163.077 470.547 147.636H496.553C492.218 176.351 467.838 195.855 433.164 195.855C390.092 195.855 365.441 163.077 365.441 125.423Z" fill="#222222"/>
<path d="M506.848 125.423C506.848 84.5184 536.375 54.9911 577.28 54.9911C618.185 54.9911 647.441 84.5184 647.441 125.423C647.441 166.328 618.185 195.855 577.28 195.855C536.375 195.855 506.848 166.328 506.848 125.423ZM620.623 125.423C620.623 97.5212 603.015 78.017 577.28 78.017C551.275 78.017 533.666 97.5212 533.666 125.423C533.666 153.325 551.275 172.829 577.28 172.829C603.015 172.829 620.623 153.325 620.623 125.423Z" fill="#222222"/>
<path d="M646.356 57.1582H673.446L709.204 160.639L745.232 57.1582H772.321L722.477 193.688H696.472L646.356 57.1582Z" fill="#222222"/>
<path d="M904.247 149.262C899.371 177.435 874.719 195.855 841.129 195.855C798.87 195.855 772.593 162.535 772.593 124.61C772.593 86.4147 796.432 54.9911 838.42 54.9911C880.679 54.9911 903.163 85.0602 903.163 119.734C903.163 123.256 902.892 127.59 902.621 130.028H798.328C800.495 155.763 817.29 173.371 841.129 173.371C861.175 173.371 874.178 164.703 877.97 149.262H904.247ZM799.14 110.795H876.616C874.99 89.9363 860.904 76.1207 838.42 76.1207C817.019 76.1207 803.204 88.04 799.14 110.795Z" fill="#222222"/>
<path d="M981.18 79.9132C956.258 79.9132 948.132 102.126 948.132 131.925V193.688H921.855V57.1582H948.132V83.4348C954.362 65.285 965.198 57.1582 984.431 57.1582H1000.96V79.9132H981.18Z" fill="#222222"/>
<path d="M29.9413 71.9218V101.449H0.955811V71.9218H29.9413ZM29.9413 164.432V193.688H0.955811V164.432H29.9413Z" fill="#222222"/>
</g>
<defs>
<clipPath id="clip0">
<rect x="0.955566" width="1000" height="195.86" fill="white"/>
</clipPath>
</defs>
</svg>
